<svg xmlns="http://www.w3.org/2000/svg" width="40" zoomAndPan="magnify"
     viewBox="0 0 30 37.92"
     height="40" preserveAspectRatio="xMidYMid meet" version="1.0">
    <defs>
        <g/>
        <clipPath id="dac4f62784">
            <path d="M 0.675781 0.644531 L 29.210938 0.644531 L 29.210938 29.179688 L 0.675781 29.179688 Z M 0.675781 0.644531 "
                  clip-rule="nonzero"/>
        </clipPath>
        <clipPath id="b01e4af17b">
            <path d="M 2.210938 0.757812 L 27.789062 0.757812 C 28.167969 0.757812 28.527344 0.90625 28.796875 1.171875 C 29.0625 1.4375 29.210938 1.800781 29.210938 2.179688 L 29.210938 27.757812 C 29.210938 28.136719 29.0625 28.496094 28.796875 28.765625 C 28.527344 29.03125 28.167969 29.179688 27.789062 29.179688 L 2.210938 29.179688 C 1.832031 29.179688 1.472656 29.03125 1.203125 28.765625 C 0.9375 28.496094 0.789062 28.136719 0.789062 27.757812 L 0.789062 2.179688 C 0.789062 1.800781 0.9375 1.4375 1.203125 1.171875 C 1.472656 0.90625 1.832031 0.757812 2.210938 0.757812 Z M 2.210938 0.757812 "
                  clip-rule="nonzero"/>
        </clipPath>
    </defs>
    <g clip-path="url(#dac4f62784)">
        <g clip-path="url(#b01e4af17b)">
            <path fill="#afb1b3"
                  d="M 0.789062 0.757812 L 29.210938 0.757812 L 29.210938 29.179688 L 0.789062 29.179688 Z M 0.789062 0.757812 "
                  fill-opacity="1" fill-rule="nonzero"/>
        </g>
    </g>
    <g fill="#6e6e6e" fill-opacity="1">
        <g transform="translate(1.294448, 18.411159)">
            <g>
                <path d="M 2.609375 -8.96875 L 3.28125 -8.515625 C 3.019531 -8.128906 2.785156 -7.75 2.578125 -7.375 C 2.367188 -7.007812 2.1875 -6.625 2.03125 -6.21875 C 1.882812 -5.820312 1.769531 -5.382812 1.6875 -4.90625 C 1.613281 -4.425781 1.578125 -3.867188 1.578125 -3.234375 C 1.578125 -2.617188 1.613281 -2.066406 1.6875 -1.578125 C 1.769531 -1.097656 1.882812 -0.65625 2.03125 -0.25 C 2.1875 0.144531 2.367188 0.523438 2.578125 0.890625 C 2.785156 1.265625 3.019531 1.644531 3.28125 2.03125 L 2.609375 2.484375 C 2.328125 2.085938 2.054688 1.691406 1.796875 1.296875 C 1.535156 0.898438 1.304688 0.484375 1.109375 0.046875 C 0.910156 -0.390625 0.753906 -0.875 0.640625 -1.40625 C 0.523438 -1.945312 0.46875 -2.554688 0.46875 -3.234375 C 0.46875 -3.921875 0.523438 -4.53125 0.640625 -5.0625 C 0.753906 -5.601562 0.910156 -6.09375 1.109375 -6.53125 C 1.304688 -6.96875 1.535156 -7.382812 1.796875 -7.78125 C 2.054688 -8.175781 2.328125 -8.570312 2.609375 -8.96875 Z M 2.609375 -8.96875 "/>
            </g>
        </g>
    </g>
    <g fill="#6e6e6e" fill-opacity="1">
        <g transform="translate(5.04468, 18.411159)">
            <g>
                <path d="M 7.546875 -6.53125 L 7.546875 0 L 1.015625 0 L 1.015625 -6.53125 Z M 7.546875 -6.53125 "/>
            </g>
        </g>
    </g>
    <g fill="#6e6e6e" fill-opacity="1">
        <g transform="translate(13.610028, 18.411159)">
            <g>
                <path d="M 1.375 -1.46875 C 1.601562 -1.46875 1.796875 -1.390625 1.953125 -1.234375 C 2.109375 -1.078125 2.1875 -0.890625 2.1875 -0.671875 C 2.1875 -0.429688 2.117188 -0.15625 1.984375 0.15625 L 1.203125 1.921875 L 0.4375 1.921875 L 0.90625 0 C 0.6875 -0.164062 0.578125 -0.390625 0.578125 -0.671875 C 0.578125 -0.890625 0.65625 -1.078125 0.8125 -1.234375 C 0.96875 -1.390625 1.15625 -1.46875 1.375 -1.46875 Z M 1.375 -1.46875 "/>
            </g>
        </g>
    </g>
    <g fill="#6e6e6e" fill-opacity="1">
        <g transform="translate(16.387978, 18.411159)">
            <g>
                <path d="M 7.546875 -6.53125 L 7.546875 0 L 1.015625 0 L 1.015625 -6.53125 Z M 7.546875 -6.53125 "/>
            </g>
        </g>
    </g>
    <g fill="#6e6e6e" fill-opacity="1">
        <g transform="translate(24.953325, 18.411159)">
            <g>
                <path d="M 1.140625 -8.96875 C 1.421875 -8.570312 1.691406 -8.175781 1.953125 -7.78125 C 2.210938 -7.382812 2.441406 -6.96875 2.640625 -6.53125 C 2.835938 -6.09375 2.992188 -5.601562 3.109375 -5.0625 C 3.222656 -4.53125 3.28125 -3.921875 3.28125 -3.234375 C 3.28125 -2.554688 3.222656 -1.945312 3.109375 -1.40625 C 2.992188 -0.875 2.835938 -0.390625 2.640625 0.046875 C 2.441406 0.484375 2.210938 0.898438 1.953125 1.296875 C 1.691406 1.691406 1.421875 2.085938 1.140625 2.484375 L 0.46875 2.03125 C 0.726562 1.644531 0.960938 1.265625 1.171875 0.890625 C 1.378906 0.523438 1.554688 0.144531 1.703125 -0.25 C 1.859375 -0.65625 1.972656 -1.097656 2.046875 -1.578125 C 2.128906 -2.066406 2.171875 -2.617188 2.171875 -3.234375 C 2.171875 -3.867188 2.128906 -4.425781 2.046875 -4.90625 C 1.972656 -5.382812 1.859375 -5.820312 1.703125 -6.21875 C 1.554688 -6.625 1.378906 -7.007812 1.171875 -7.375 C 0.960938 -7.75 0.726562 -8.128906 0.46875 -8.515625 Z M 1.140625 -8.96875 "/>
            </g>
        </g>
    </g>
</svg>
