<svg xmlns="http://www.w3.org/2000/svg" width="400" zoomAndPan="magnify"
     viewBox="0 0 300 299.999988" height="400" preserveAspectRatio="xMidYMid meet" version="1.0"
>
    <defs>
        <g/>
    </defs>
    <g fill="#CED0D6" fill-opacity="1">
        <g transform="translate(12.655336, 184.499985)">
            <g>
                <path d="M 26.21875 -89.90625 L 32.9375 -85.265625 C 30.3125 -81.390625 27.953125 -77.613281 25.859375 -73.9375 C 23.773438 -70.269531 21.976562 -66.425781 20.46875 -62.40625 C 18.96875 -58.382812 17.8125 -53.957031 17 -49.125 C 16.1875 -44.289062 15.78125 -38.742188 15.78125 -32.484375 C 15.78125 -26.296875 16.1875 -20.765625 17 -15.890625 C 17.8125 -11.015625 18.96875 -6.566406 20.46875 -2.546875 C 21.976562 1.472656 23.773438 5.316406 25.859375 8.984375 C 27.953125 12.660156 30.3125 16.429688 32.9375 20.296875 L 26.21875 24.9375 C 23.351562 20.914062 20.625 16.929688 18.03125 12.984375 C 15.445312 9.046875 13.148438 4.875 11.140625 0.46875 C 9.128906 -3.9375 7.539062 -8.804688 6.375 -14.140625 C 5.21875 -19.484375 4.640625 -25.597656 4.640625 -32.484375 C 4.640625 -39.359375 5.21875 -45.460938 6.375 -50.796875 C 7.539062 -56.140625 9.128906 -61.015625 11.140625 -65.421875 C 13.148438 -69.828125 15.445312 -74.003906 18.03125 -77.953125 C 20.625 -81.898438 23.351562 -85.882812 26.21875 -89.90625 Z M 26.21875 -89.90625 "/>
            </g>
        </g>
    </g>
    <g stroke="#CED0D6" stroke-width="16" fill-opacity="1" fill="none">
        <g transform="translate(50.23678, 184.499985)">
            <g>
                <path d="M 75.625 -65.421875 L 75.625 0 L 10.203125 0 L 10.203125 -65.421875 Z M 75.625 -65.421875 "/>
            </g>
        </g>
    </g>
    <g fill="#CED0D6" fill-opacity="1">
        <g transform="translate(136.070952, 184.499985)">
            <g>
                <path d="M 13.796875 -14.734375 C 16.117188 -14.734375 18.050781 -13.957031 19.59375 -12.40625 C 21.144531 -10.863281 21.921875 -8.972656 21.921875 -6.734375 C 21.921875 -4.328125 21.226562 -1.578125 19.84375 1.515625 L 12.0625 19.25 L 4.40625 19.25 L 9.046875 0 C 6.878906 -1.625 5.796875 -3.867188 5.796875 -6.734375 C 5.796875 -8.972656 6.566406 -10.863281 8.109375 -12.40625 C 9.660156 -13.957031 11.554688 -14.734375 13.796875 -14.734375 Z M 13.796875 -14.734375 "/>
            </g>
        </g>
    </g>
    <g stroke="#CED0D6" stroke-width="16" fill-opacity="1" fill="none">
        <g transform="translate(163.909058, 184.499985)">
            <g>
                <path d="M 75.625 -65.421875 L 75.625 0 L 10.203125 0 L 10.203125 -65.421875 Z M 75.625 -65.421875 "/>
            </g>
        </g>
    </g>
    <g fill="#CED0D6" fill-opacity="1">
        <g transform="translate(249.74323, 184.499985)">
            <g>
                <path d="M 11.375 -89.90625 C 14.226562 -85.882812 16.953125 -81.898438 19.546875 -77.953125 C 22.140625 -74.003906 24.441406 -69.828125 26.453125 -65.421875 C 28.460938 -61.015625 30.046875 -56.140625 31.203125 -50.796875 C 32.359375 -45.460938 32.9375 -39.359375 32.9375 -32.484375 C 32.9375 -25.597656 32.359375 -19.484375 31.203125 -14.140625 C 30.046875 -8.804688 28.460938 -3.9375 26.453125 0.46875 C 24.441406 4.875 22.140625 9.046875 19.546875 12.984375 C 16.953125 16.929688 14.226562 20.914062 11.375 24.9375 L 4.640625 20.296875 C 7.265625 16.429688 9.617188 12.660156 11.703125 8.984375 C 13.796875 5.316406 15.597656 1.472656 17.109375 -2.546875 C 18.617188 -6.566406 19.78125 -11.015625 20.59375 -15.890625 C 21.40625 -20.765625 21.8125 -26.296875 21.8125 -32.484375 C 21.8125 -38.742188 21.40625 -44.289062 20.59375 -49.125 C 19.78125 -53.957031 18.617188 -58.382812 17.109375 -62.40625 C 15.597656 -66.425781 13.796875 -70.269531 11.703125 -73.9375 C 9.617188 -77.613281 7.265625 -81.390625 4.640625 -85.265625 Z M 11.375 -89.90625 "/>
            </g>
        </g>
    </g>
</svg>
